<svg width="30" height="28" viewBox="0 0 30 28" fill="none" xmlns="http://www.w3.org/2000/svg">
<path fill-rule="evenodd" clip-rule="evenodd" d="M10.5469 0.237491C11.0484 0.232803 11.2219 0.293741 11.2922 0.514054C11.3484 0.687491 11.3062 0.879679 11.1937 0.949991C11.1609 0.968741 10.8844 1.01093 10.5797 1.04374C9.71718 1.1328 9.34687 1.36718 9.1875 1.92499C9.1125 2.19687 9.14531 2.78749 9.25781 3.09687C9.375 3.44374 11.5875 8.06562 13.3266 11.6094C14.9344 14.8859 15.2812 15.6078 15.2812 15.6641C15.2812 15.8141 14.775 16.3719 14.3953 16.6344C14.1562 16.8031 14.2172 16.85 13.8187 16.2266C13.1672 15.2 12.2812 14.4266 10.8609 13.6437C9.80625 13.0672 9.20625 12.7203 9.12187 12.6453C9.04218 12.5797 8.77031 12.0406 8.05312 10.5312C7.53749 9.44374 6.25781 6.72968 5.67187 5.46874C4.39218 2.71718 4.27031 2.46874 4.10156 2.21562C3.59531 1.45155 2.81718 1.08593 1.57031 1.02968C0.876558 1.00155 0.768745 0.959366 0.72187 0.706241C0.698433 0.579678 0.712495 0.509366 0.782808 0.415616L0.876558 0.289053L5.5125 0.265616C8.0625 0.251553 10.3266 0.242178 10.5469 0.237491ZM28.9687 0.256241C29.4703 0.274991 29.5172 0.279679 29.6109 0.387491C29.7516 0.542179 29.7516 0.753116 29.6109 0.893741C29.5125 0.987491 29.4422 1.00624 28.9453 1.02968C28.0172 1.07655 27.4641 1.28749 26.9859 1.77499C26.6719 2.09843 26.4141 2.59999 25.2516 5.16405C24.8766 5.98905 23.8687 8.20624 23.0109 10.0859C22.1578 11.9656 21.2719 13.9203 21.0469 14.4219C20.2547 16.1984 18.9234 19.1422 18.6469 19.7422C18.3609 20.3562 17.4 22.5031 16.5375 24.4531C16.0547 25.5359 15.3281 27.2187 15.3281 27.2516C15.3281 27.2609 16.1578 27.2609 17.1656 27.2562L19.0078 27.2422L19.0312 25.3906C19.0547 23.3797 19.0547 23.3984 19.3266 23.2344C19.4578 23.1547 19.5656 23.1406 20.1422 23.1406H20.8125V22.3578L20.6391 22.2453C20.4187 22.1 20.2969 21.8656 20.2969 21.5797C20.2969 21.3078 20.3906 21.0922 20.5687 20.9609C20.6766 20.8812 20.7844 20.8625 21.3047 20.8484C21.6937 20.8391 21.9281 20.8156 21.9469 20.7781C21.9656 20.75 21.9844 20.5766 21.9844 20.3891C21.9844 20.1031 21.9656 20.0187 21.8531 19.8266C21.6797 19.5312 21.4828 19.0484 21.4219 18.7812C21.3516 18.4625 21.3656 17.9703 21.45 17.6281L21.5297 17.3234L21.7453 17.7125C21.9656 18.1062 22.2516 18.5328 22.2047 18.4062C22.1906 18.3687 22.0594 18.0219 21.9094 17.6422C21.5953 16.8406 21.5953 16.925 21.9422 16.0437L22.1391 15.5469L22.2891 15.8984C22.4672 16.3062 22.7437 16.7562 22.7719 16.6812C22.7812 16.6531 22.7156 16.4281 22.6266 16.1891C22.5328 15.95 22.4297 15.6312 22.3875 15.4812L22.3172 15.2047L22.5047 14.7547C22.7437 14.1734 23.175 13.2547 23.2031 13.25C23.2172 13.25 23.2687 13.3625 23.3156 13.4984C23.4516 13.8781 23.6719 14.3469 23.7 14.3141C23.7141 14.3 23.6625 14.0094 23.5781 13.6719C23.4984 13.3344 23.4281 12.9969 23.4281 12.9266C23.4187 12.6969 24.3469 11.0234 25.1625 9.7953C25.5984 9.13905 26.2969 8.20155 26.6859 7.74218C27.1312 7.21718 28.0125 6.28905 28.2187 6.12499L28.4109 5.97499L28.3078 6.22343C27.9891 7.02499 27.8766 7.47499 27.5859 9.17187C27.4687 9.85624 27.3562 10.4281 27.3375 10.4422C27.3187 10.4562 27.1453 10.6016 26.9578 10.7656C26.7656 10.9297 26.4844 11.1547 26.3297 11.2625C26.175 11.375 26.0672 11.4687 26.0812 11.4687C26.1656 11.4687 27.0891 10.9719 27.2062 10.8641C27.3234 10.7562 27.3375 10.7516 27.3187 10.8359C27.3047 10.8875 27.225 11.2859 27.1359 11.7266L26.9766 12.5234L26.2266 13.2687L25.4766 14.0141L25.8281 13.7891C26.2219 13.5406 26.5359 13.2969 26.7375 13.0859L26.8734 12.9453L26.8453 13.0719C26.8266 13.1375 26.7703 13.3859 26.7141 13.6203L26.6156 14.0422L26.1422 14.4547C25.8797 14.6844 25.4484 15.0453 25.1812 15.2562C24.7594 15.6031 24.5859 15.7625 24.7594 15.6594C25.1719 15.4109 26.1797 14.75 26.3344 14.6234C26.5219 14.4687 26.5359 14.4641 26.5125 14.5672C26.4984 14.6281 26.4422 14.8672 26.3953 15.1016C26.1469 16.2359 26.0203 16.6766 25.9125 16.7703C25.8516 16.8219 25.4859 17.0937 25.1016 17.3797C24.0844 18.1203 24.0469 18.1625 24.6328 17.8625C25.3172 17.5109 25.6875 17.2953 25.8234 17.1734L25.9312 17.0703L25.8984 17.1875C25.575 18.2891 25.3734 18.7109 24.9609 19.1516C24.675 19.4562 24.0328 19.9156 23.625 20.1031C23.4094 20.2016 23.3953 20.2203 23.3672 20.4312C23.3109 20.8203 23.3344 20.8437 23.8031 20.8437C24.2859 20.8437 24.4875 20.9234 24.6187 21.1719C24.7125 21.3547 24.7312 21.6594 24.6516 21.8609C24.5953 22.0109 24.3375 22.2969 24.2531 22.2969C24.1734 22.2969 24.1406 22.4094 24.1406 22.7187C24.1406 23.1641 24.1031 23.1406 24.8672 23.1406C25.4719 23.1406 25.5469 23.15 25.6594 23.2391C25.9219 23.4453 25.9219 23.4547 25.9219 25.3625C25.9219 26.8953 25.9312 27.1297 25.9969 27.1906C26.0578 27.2562 26.2453 27.2656 27.3047 27.2656C27.9844 27.2656 28.5937 27.2844 28.6547 27.3078C28.8141 27.3687 28.8422 27.4859 28.7344 27.5937C28.6406 27.6875 28.5375 27.6875 17.8641 27.6875C11.3859 27.6875 7.04062 27.6687 6.97031 27.6453C6.81093 27.5844 6.78281 27.4672 6.89062 27.3594C6.98437 27.2656 7.06406 27.2656 10.9922 27.2656C13.1953 27.2656 15 27.2562 15 27.2469C15 27.2328 14.9484 27.1016 14.8828 26.9516C14.8219 26.8016 14.5875 26.2156 14.3672 25.6484C13.8891 24.4297 13.6547 23.975 13.3266 23.6094C12.7031 22.925 12.0516 22.6812 10.1719 22.4375C9.77343 22.3859 9.32812 22.3156 9.1875 22.2828L8.92968 22.2219L9.30468 22.1891C9.51093 22.1703 9.86718 22.1094 10.0969 22.0437L10.5187 21.9312L10.6969 22.0484C10.8844 22.175 11.0391 22.1703 11.175 22.0344C11.3531 21.8609 11.1797 21.5469 10.9031 21.5469C10.8234 21.5469 10.5094 21.5984 10.2 21.6641C9.36562 21.8422 8.775 21.8937 8.29687 21.8234C7.8375 21.7578 7.62656 21.6969 7.85156 21.6875C8.01093 21.6875 8.55937 21.5469 9.39843 21.2984C10.2797 21.0406 10.8141 20.9656 11.6203 20.9984C12.6422 21.0359 13.0875 21.2281 13.6266 21.8656C13.9172 22.2078 13.9406 22.1516 13.7203 21.6172C13.3641 20.7406 12.7453 20.1266 10.9219 18.8328C8.83593 17.3516 7.63593 16.2687 6.4875 14.8203C5.03906 12.9969 4.22343 11.4969 3.83906 9.9453C3.69375 9.35937 3.66093 7.99999 3.78749 7.99999C3.80624 7.99999 3.94218 8.23905 4.09687 8.52968C4.24687 8.81561 4.42031 9.1203 4.48125 9.20468C4.57968 9.33124 4.59375 9.40624 4.59375 9.7578C4.59375 11.2203 5.49375 12.9453 7.33125 15.0078C8.53593 16.3625 9.34687 17.0187 11.5312 18.4203C12.4875 19.0344 13.1016 19.5219 13.3828 19.8922C13.575 20.1453 13.5797 20.1172 13.4766 19.5031C13.275 18.35 12.5859 16.9437 11.8406 16.1656C11.3859 15.6922 10.7391 15.2562 10.1531 15.0312C10.0406 14.9891 10.0312 14.9937 10.0734 15.0687C10.0969 15.1156 10.2516 15.2656 10.4156 15.4062C11.3625 16.2266 12.0141 17.0562 12.4922 18.05C12.9047 18.9172 12.9 18.9219 12.2812 18.2891C11.1984 17.1875 10.4062 16.1141 9.8625 15.0078C9.60468 14.4828 9.30468 13.6391 9.35625 13.5828C9.39375 13.5406 11.3016 14.6609 11.7656 15.0031C11.9062 15.1062 12.2062 15.3687 12.4266 15.5891C13.3828 16.5453 13.9266 17.7078 14.2312 19.4375C14.3391 20.0469 14.3578 20.3047 14.3906 21.875C14.4141 22.8406 14.4562 23.8203 14.4844 24.0547C14.5547 24.5797 14.7656 25.4375 14.9391 25.8781L15.0703 26.2109L15.0844 25.8828C15.1172 24.9734 15.2437 23.6047 15.3516 23.0375C15.5672 21.8656 15.9797 20.8578 16.7812 19.5312C17.7187 17.9891 17.9906 17.2391 18.0328 16.0625C18.0656 15.1203 17.9859 14.7781 17.4609 13.6531C17.2687 13.2312 17.2687 13.1141 17.4656 12.725C17.7187 12.2281 18.1969 11.9375 18.7687 11.9375C18.9328 11.9375 19.1391 11.9703 19.2328 12.0078C19.6172 12.1672 19.8984 12.5469 19.95 12.9734C20.0062 13.4516 19.6969 13.9297 19.2562 14.0516C18.8437 14.1594 18.4125 13.8125 18.4875 13.4234C18.5484 13.0859 19.0219 12.8 19.3219 12.9125C19.4625 12.9641 19.4625 12.9641 19.3781 12.8656C19.1859 12.6547 18.7359 12.5703 18.4781 12.7062C17.9391 12.9875 17.8359 13.7891 18.2719 14.2484C18.8672 14.8766 19.9547 14.6328 20.3766 13.775C20.4937 13.5406 20.5078 13.4562 20.5078 13.0625C20.5078 12.6687 20.4937 12.5891 20.3766 12.3594C20.0062 11.6422 19.2094 11.2391 18.4266 11.375C18.0937 11.4312 17.7516 11.5672 17.6156 11.6891C17.5594 11.7391 17.5312 11.7453 17.5312 11.7078C17.5312 11.675 18.1125 10.4047 18.825 8.87655C19.5375 7.34843 20.1984 5.9328 20.2969 5.72655C20.3906 5.5203 20.6953 4.87343 20.9672 4.29218C21.2437 3.70624 21.4969 3.10624 21.5391 2.95624C21.6375 2.57655 21.6281 2.0703 21.5203 1.83593C21.4078 1.58749 21.1266 1.32499 20.8453 1.20312C20.6109 1.09999 19.9453 1.00624 19.5281 1.02499C19.3312 1.02968 19.2844 1.01562 19.1859 0.903116C19.05 0.743741 19.0453 0.551554 19.1766 0.387491L19.2703 0.265616L23.85 0.251553C26.3672 0.246866 28.6734 0.246866 28.9687 0.256241ZM3.91406 3.8328C4.05468 3.82812 4.05 3.8328 3.86718 3.91718C3.45468 4.10937 3.23437 4.54062 3.20156 5.25312C3.17343 5.77812 3.23906 6.21874 3.45 6.88437C3.5625 7.23124 3.5625 7.26405 3.49218 7.34374C3.34687 7.50312 3.22499 7.99999 3.20156 8.55311C3.16406 9.31249 3.29531 10.1703 3.5625 10.8969C3.61406 11.0281 3.64687 11.1406 3.6375 11.1406C3.6 11.1406 3 10.3016 2.72812 9.87499C2.57343 9.62655 2.33906 9.21405 2.2125 8.95155C2.08125 8.69374 1.86562 8.2953 1.72968 8.0703C1.41562 7.53593 1.28437 7.23593 1.21406 6.87499C1.15312 6.56562 1.11093 6.57499 1.05937 6.89843C1.00312 7.24999 1.10625 7.56405 1.66406 8.69374C2.38125 10.1375 2.79843 10.7609 3.70312 11.7172C3.9 11.9281 4.12031 12.2094 4.18593 12.3359C4.25156 12.4672 4.40156 12.7344 4.51875 12.9359C4.63593 13.1375 4.73437 13.3062 4.73437 13.3156C4.73437 13.3437 3.71718 12.7719 3.04687 12.3687C2.32968 11.9375 1.725 11.5344 1.39687 11.2672C1.03125 10.9672 0.998433 10.9625 1.17187 11.2062C1.71562 11.9609 2.98125 12.8562 4.70625 13.7047C5.15625 13.925 5.28281 14.0094 5.37187 14.1453C5.43281 14.2437 5.57812 14.4406 5.69531 14.5859C5.81718 14.7312 5.90624 14.8578 5.89687 14.8672C5.8875 14.8719 5.52656 14.7453 5.08593 14.5859C3.15468 13.8828 1.9125 13.1609 1.00312 12.2094C0.393745 11.5766 0.21562 11.1031 0.15937 9.96874C0.126558 9.34999 0.178121 8.77812 0.309371 8.24374C0.393746 7.90155 0.468745 7.76562 0.468745 7.9578C0.468745 8.16874 0.660933 8.81093 0.820308 9.14843C1.15312 9.8328 1.77187 10.6203 2.33437 11.0609L2.61562 11.2812L2.19375 10.6437C1.07812 8.94687 0.81562 8.41249 0.70312 7.57812C0.656245 7.22187 0.656245 7.18905 0.792183 6.78124C1.05 6.01249 1.44843 5.37499 1.98749 4.8453C2.48906 4.35312 2.99531 4.04374 3.52031 3.90312C3.66093 3.86562 3.83906 3.8328 3.91406 3.8328ZM2.61093 5.6703C2.57343 5.6328 2.35781 5.98437 2.26874 6.21874C2.15156 6.52812 2.12812 7.41405 2.22187 7.85468C2.29218 8.1828 2.52656 8.86718 2.55468 8.83436C2.56406 8.82499 2.53593 8.66093 2.49843 8.46874C2.41406 8.0328 2.4375 6.94062 2.55468 6.20468C2.59687 5.92343 2.62031 5.68437 2.61093 5.6703ZM28.0172 6.51874C27.9797 6.48124 27.15 7.68593 26.6953 8.4453C26.25 9.18593 25.2375 11.1594 24.8391 12.0547C23.7469 14.5344 22.7109 18.0312 22.4812 20.0469C22.3781 20.9094 22.3687 20.8437 22.6172 20.8437H22.8281V20.6703C22.8281 20.075 23.2781 17.7875 23.6906 16.2734C24.5625 13.0812 25.7062 10.4469 27.6047 7.25468C27.8391 6.85624 28.0266 6.52812 28.0172 6.51874ZM5.09999 9.68749C5.12343 9.68749 5.2125 9.77655 5.29687 9.88905C5.50781 10.1516 6.01406 10.7328 6.06562 10.7703C6.08906 10.7891 6.06562 10.9062 6.01875 11.0281C5.94375 11.2156 5.92968 11.3844 5.92968 11.9703C5.92968 12.3641 5.925 12.6875 5.91562 12.6875C5.86406 12.6875 5.42343 11.6562 5.32031 11.3047C5.18906 10.85 5.0625 10.1422 5.0625 9.86561C5.0625 9.76718 5.08124 9.68749 5.09999 9.68749ZM0.66562 10.5641C0.689058 10.6812 0.904683 10.6812 0.92812 10.5641C0.937495 10.5172 0.918745 10.4516 0.89062 10.4141C0.773433 10.2687 0.62812 10.3672 0.66562 10.5641ZM6.50156 11.1875C6.51562 11.1875 6.76406 11.4125 7.05 11.6937C7.50468 12.1344 8.09062 12.6266 8.625 13.0297C8.77968 13.1422 8.79843 13.1844 8.87343 13.5734C9.08437 14.7031 9.69843 15.9172 10.65 17.0984C10.8703 17.375 11.0672 17.6234 11.0859 17.6516C11.1234 17.7172 10.1578 17.0984 9.75937 16.8031C9.34218 16.4937 8.70937 15.8422 8.4375 15.4344C8.13281 14.975 7.99687 14.6797 7.6875 13.7891C7.55156 13.4 7.42499 13.0531 7.39687 13.0156C7.36874 12.9687 7.36406 13.1375 7.37812 13.5078C7.40156 14.0703 7.50937 14.5953 7.66875 14.9C7.71093 14.975 7.73437 15.0453 7.72499 15.0547C7.69687 15.0828 7.05937 14.2016 6.90468 13.9203C6.70781 13.5687 6.4875 12.8984 6.41718 12.4531C6.36562 12.1062 6.37968 11.4312 6.44531 11.2719C6.46406 11.225 6.49218 11.1875 6.50156 11.1875ZM0.431245 12.2141L0.81562 12.5844C1.86093 13.6016 2.85 14.1453 5.57812 15.1953L6.39843 15.5094L6.86718 16.0109C7.125 16.2828 7.50937 16.6812 7.72031 16.8969C7.93593 17.1078 8.10937 17.2906 8.10937 17.3C8.10937 17.3047 7.97812 17.2953 7.81406 17.2719C7.43906 17.2156 6.53906 17.2531 6.11718 17.3469C5.93437 17.3844 5.65312 17.4312 5.48437 17.45C4.95937 17.5156 5.35781 17.5531 6.60937 17.5578C7.86093 17.5625 8.24531 17.6047 8.60156 17.7687C8.82656 17.8719 9.67031 18.5 9.58125 18.5C9.55781 18.5 9.37031 18.4672 9.16406 18.4297C8.61562 18.3312 7.40156 18.3406 6.46875 18.4531C5.55937 18.5609 4.69687 18.5703 4.25624 18.4812C3.48749 18.3172 2.97656 17.9422 2.47031 17.1828C2.25468 16.8547 1.875 16.1797 1.875 16.1187C1.875 16.1141 1.97343 16.1703 2.09062 16.2547C2.97656 16.8641 4.31249 17.1125 5.68593 16.925C5.92499 16.8922 5.93906 16.8125 5.70937 16.8125C5.62499 16.8125 5.2125 16.7562 4.78593 16.6906C3.62343 16.5125 2.69062 16.1984 1.96875 15.7531C1.66406 15.5656 1.50468 15.3547 1.275 14.8437C1.02656 14.3 1.03125 14.2953 1.43906 14.5906C2.22187 15.1578 3.21562 15.5281 4.07343 15.575L4.57031 15.5984L4.03125 15.4156C3.01406 15.0641 1.88437 14.4969 1.2 14C0.890621 13.775 0.721871 13.4234 0.520308 12.5703L0.431245 12.2141ZM16.6922 13.7469L16.7906 13.8594C16.9687 14.075 17.2359 14.7219 17.3203 15.125C17.475 15.8937 17.3391 16.9437 16.9641 17.8437C16.8 18.2469 16.5328 18.7437 16.125 19.4328C15.7734 20.0234 15.3234 20.9094 15.1828 21.3031C15.1266 21.4625 15.0656 21.5937 15.0562 21.5937C15.0422 21.5937 15.0469 21.5 15.0609 21.3875C15.0984 21.1531 15.0187 19.7609 14.9484 19.3859C14.9016 19.1375 14.9016 19.1328 15.0281 19.0391C15.3328 18.8234 15.8297 18.3594 16.0406 18.0969C16.1672 17.9469 16.3547 17.6469 16.4578 17.4359C16.6219 17.1031 16.6547 17 16.6687 16.6859C16.6828 16.3859 16.6734 16.3391 16.6312 16.4375C16.1719 17.4406 15.8719 17.8578 15.1266 18.5047L14.8594 18.7391L14.7844 18.4672C14.7422 18.3172 14.6578 18.0359 14.5922 17.8437C14.5078 17.5766 14.4937 17.4875 14.5406 17.4641C14.8828 17.2625 15.4687 16.6859 15.7266 16.2922C16.0594 15.7812 16.5 14.6844 16.6406 14.0141L16.6922 13.7469ZM3.69374 18.7391L3.85312 18.8094C3.94687 18.8469 4.21406 18.9125 4.45312 18.9547C5.01093 19.0484 5.7 19.0203 6.90468 18.8516C7.68749 18.7437 7.89843 18.7297 8.63906 18.7484C9.25312 18.7672 9.55312 18.7953 9.74062 18.8516C10.0547 18.95 10.6875 19.2734 10.7906 19.3859C10.8609 19.4656 10.8469 19.4656 10.5281 19.4094C9.83906 19.2875 8.97187 19.3437 7.75312 19.5875C6.29531 19.8734 5.86406 19.9109 5.24062 19.8125C5.07187 19.7844 4.84687 19.7187 4.73437 19.6672C4.5 19.5547 3.98906 19.1281 3.81562 18.9031L3.69374 18.7391ZM10.8891 19.775C11.2359 19.8453 11.5031 20 11.9109 20.3469C12.2578 20.6422 12.3703 20.7969 12.1922 20.7266C12.1453 20.7078 11.9016 20.6703 11.6531 20.6422C10.9594 20.5625 10.2375 20.6516 9 20.9609C7.50937 21.3359 7.07812 21.3406 6.40312 21.0031C6.14531 20.8719 5.60156 20.5109 5.3625 20.3141L5.22187 20.1969L5.45625 20.2344C6.04687 20.3328 6.52031 20.2812 8.19374 19.925C8.64374 19.8312 9.21562 19.7375 9.45937 19.7187C9.97031 19.6766 10.5469 19.7 10.8891 19.775ZM23.0062 21.3266C22.9406 21.3266 22.4625 21.3406 21.9422 21.3453C20.9812 21.3594 20.925 21.3687 21.0281 21.5281C21.0516 21.5703 21.4406 21.5891 22.4109 21.5984L23.7609 21.6172L23.4422 21.4672C23.2687 21.3828 23.0719 21.3219 23.0062 21.3266ZM21.5391 22.5172L21.3609 22.5359L21.3891 23.1172L22.2703 23.1406L22.2469 22.8828C22.2375 22.7375 22.2047 22.5969 22.1766 22.5687C22.1156 22.5125 21.8016 22.4844 21.5391 22.5172ZM23.5547 22.6578C23.5453 22.5734 23.5359 22.6531 23.5359 22.8359C23.5406 23.0141 23.5453 23.0844 23.5594 22.9859C23.5687 22.8875 23.5687 22.7422 23.5547 22.6578ZM21.8203 23.7547L19.725 23.75L19.6781 23.8672C19.65 23.9375 19.6359 24.5328 19.6406 25.2875L19.65 26.5859L19.6828 25.5547C19.7016 24.9875 19.7156 24.4344 19.7203 24.3219C19.725 24.1344 19.7344 24.125 19.8609 24.125C19.9359 24.125 20.0625 24.1391 20.1422 24.1531L20.2875 24.1812V25.2547C20.2875 26.2812 20.2828 26.3281 20.1984 26.3281C20.0297 26.3281 19.9594 26.3797 19.9594 26.5203C19.9594 26.5953 19.9875 26.6562 20.0203 26.6562C20.0531 26.6562 20.5219 26.6562 21.0609 26.6609C21.6047 26.6609 22.0687 26.6609 22.1016 26.6609C22.1953 26.6516 22.2141 26.5016 22.1344 26.4125C22.0687 26.3422 21.9844 26.3281 21.6187 26.3281H21.1781V24.2703L21.3797 24.2422C21.5625 24.2187 21.9281 24.1766 24.0141 23.9328C24.4547 23.8859 24.9047 23.8391 25.0219 23.8344C25.1391 23.8297 24.9375 23.8109 24.5766 23.7922C24.2156 23.7734 22.9781 23.7594 21.8203 23.7547ZM25.2937 24.6734C25.2844 24.3078 25.2797 24.6172 25.2797 25.3672C25.2797 26.1125 25.2844 26.4125 25.2937 26.0328C25.2984 25.6484 25.2984 25.0391 25.2937 24.6734ZM4.65468 27.2656C5.38593 27.2656 5.56875 27.275 5.65312 27.3359C5.70937 27.3781 5.75624 27.4391 5.75624 27.4766C5.75624 27.5094 5.70937 27.575 5.65312 27.6125C5.56875 27.6734 5.38593 27.6875 4.65468 27.6875C3.92343 27.6875 3.74531 27.6734 3.65625 27.6125C3.6 27.575 3.55312 27.5094 3.55312 27.4766C3.55312 27.4391 3.6 27.3781 3.65625 27.3359C3.74531 27.275 3.92343 27.2656 4.65468 27.2656Z" fill="white"/>
</svg>
