<svg width="62" height="18" viewBox="0 0 62 18" fill="none" xmlns="http://www.w3.org/2000/svg">
<path d="M16.936 0.508V0.987999C16.616 1.1 16.264 1.356 15.88 1.756C15.496 2.14 15.152 2.748 14.848 3.58L9.592 17.572C9.496 17.572 9.392 17.564 9.28 17.548C9.184 17.548 9.08 17.548 8.968 17.548C8.856 17.548 8.744 17.548 8.632 17.548C8.536 17.564 8.44 17.572 8.344 17.572L2.32 2.524C2.08 1.932 1.816 1.532 1.528 1.324C1.256 1.116 1 1.004 0.76 0.987999V0.508C1.176 0.524 1.68 0.539999 2.272 0.555999C2.88 0.571999 3.472 0.579999 4.048 0.579999C4.752 0.579999 5.408 0.571999 6.016 0.555999C6.64 0.539999 7.136 0.524 7.504 0.508V0.987999C6.976 1.004 6.568 1.068 6.28 1.18C6.008 1.276 5.856 1.468 5.824 1.756C5.792 2.028 5.88 2.444 6.088 3.004L10.504 14.356L10.048 14.908L13.648 5.308C14.048 4.236 14.248 3.388 14.248 2.764C14.248 2.14 14.072 1.692 13.72 1.42C13.368 1.148 12.864 1.004 12.208 0.987999V0.508C12.736 0.524 13.232 0.539999 13.696 0.555999C14.176 0.571999 14.648 0.579999 15.112 0.579999C15.496 0.579999 15.832 0.571999 16.12 0.555999C16.424 0.539999 16.696 0.524 16.936 0.508ZM21.8751 4.756C23.2831 4.756 24.3871 5.18 25.1871 6.028C25.9871 6.876 26.3871 8.228 26.3871 10.084H18.2991L18.2751 9.628H23.6031C23.6351 8.844 23.5871 8.124 23.4591 7.468C23.3311 6.796 23.1231 6.26 22.8351 5.86C22.5631 5.46 22.2031 5.26 21.7551 5.26C21.1471 5.26 20.6191 5.62 20.1711 6.34C19.7231 7.044 19.4431 8.204 19.3311 9.82L19.4271 9.964C19.3951 10.172 19.3711 10.396 19.3551 10.636C19.3551 10.876 19.3551 11.116 19.3551 11.356C19.3551 12.46 19.5151 13.372 19.8351 14.092C20.1551 14.812 20.5711 15.34 21.0831 15.676C21.5951 16.012 22.1231 16.18 22.6671 16.18C23.0351 16.18 23.4111 16.124 23.7951 16.012C24.1791 15.9 24.5551 15.692 24.9231 15.388C25.2911 15.084 25.6271 14.652 25.9311 14.092L26.3871 14.284C26.2111 14.844 25.9151 15.404 25.4991 15.964C25.0991 16.508 24.5791 16.956 23.9391 17.308C23.2991 17.66 22.5471 17.836 21.6831 17.836C20.5951 17.836 19.6351 17.596 18.8031 17.116C17.9711 16.636 17.3231 15.924 16.8591 14.98C16.3951 14.02 16.1631 12.852 16.1631 11.476C16.1631 10.02 16.4031 8.796 16.8831 7.804C17.3791 6.812 18.0591 6.06 18.9231 5.548C19.7871 5.02 20.7711 4.756 21.8751 4.756ZM35.8186 4.756C36.3146 4.756 36.7226 4.86 37.0426 5.068C37.3786 5.276 37.6266 5.54 37.7866 5.86C37.9466 6.18 38.0266 6.516 38.0266 6.868C38.0266 7.396 37.8666 7.836 37.5466 8.188C37.2426 8.54 36.8346 8.716 36.3226 8.716C35.8426 8.716 35.4506 8.588 35.1466 8.332C34.8426 8.076 34.6906 7.724 34.6906 7.276C34.6906 6.876 34.7866 6.54 34.9786 6.268C35.1866 5.996 35.4186 5.78 35.6746 5.62C35.4986 5.524 35.2986 5.492 35.0746 5.524C34.6906 5.556 34.3386 5.692 34.0186 5.932C33.6986 6.172 33.4266 6.468 33.2026 6.82C32.9786 7.172 32.8026 7.548 32.6746 7.948C32.5626 8.348 32.5066 8.732 32.5066 9.1V15.028C32.5066 15.812 32.7066 16.34 33.1066 16.612C33.5066 16.868 34.0906 16.996 34.8586 16.996V17.5C34.4906 17.484 33.9546 17.468 33.2506 17.452C32.5626 17.42 31.8426 17.404 31.0906 17.404C30.4666 17.404 29.8426 17.42 29.2186 17.452C28.6106 17.468 28.1546 17.484 27.8506 17.5V16.996C28.4426 16.996 28.8586 16.876 29.0986 16.636C29.3546 16.396 29.4826 15.94 29.4826 15.268V7.708C29.4826 6.988 29.3626 6.46 29.1226 6.124C28.8986 5.772 28.4746 5.596 27.8506 5.596V5.092C28.3626 5.14 28.8586 5.164 29.3386 5.164C29.9306 5.164 30.4906 5.14 31.0186 5.092C31.5626 5.028 32.0586 4.94 32.5066 4.828V7.324C32.6986 6.876 32.9466 6.46 33.2506 6.076C33.5706 5.692 33.9466 5.38 34.3786 5.14C34.8266 4.884 35.3066 4.756 35.8186 4.756ZM43.4502 4.756C44.1222 4.756 44.6982 4.852 45.1782 5.044C45.6582 5.236 46.0102 5.404 46.2342 5.548C46.7782 5.948 47.1062 5.692 47.2182 4.78H47.7462C47.7142 5.244 47.6902 5.796 47.6742 6.436C47.6582 7.06 47.6502 7.9 47.6502 8.956H47.1222C47.0422 8.364 46.8902 7.788 46.6662 7.228C46.4422 6.668 46.1142 6.204 45.6822 5.836C45.2502 5.452 44.6822 5.26 43.9782 5.26C43.4822 5.26 43.0662 5.404 42.7302 5.692C42.4102 5.98 42.2502 6.388 42.2502 6.916C42.2502 7.396 42.3942 7.82 42.6822 8.188C42.9702 8.54 43.3382 8.876 43.7862 9.196C44.2502 9.5 44.7302 9.836 45.2262 10.204C45.8022 10.588 46.3142 10.98 46.7622 11.38C47.2102 11.764 47.5702 12.196 47.8422 12.676C48.1142 13.14 48.2502 13.692 48.2502 14.332C48.2502 15.068 48.0422 15.7 47.6262 16.228C47.2262 16.74 46.6902 17.14 46.0182 17.428C45.3622 17.7 44.6342 17.836 43.8342 17.836C43.4022 17.836 43.0102 17.796 42.6582 17.716C42.3062 17.636 41.9942 17.532 41.7222 17.404C41.5142 17.292 41.3222 17.188 41.1462 17.092C40.9862 16.996 40.8182 16.916 40.6422 16.852C40.4822 16.772 40.3382 16.804 40.2102 16.948C40.0982 17.092 40.0102 17.332 39.9462 17.668H39.4182C39.4502 17.156 39.4742 16.532 39.4902 15.796C39.5062 15.06 39.5142 14.084 39.5142 12.868H40.0422C40.1542 13.748 40.3222 14.524 40.5462 15.196C40.7862 15.852 41.1302 16.372 41.5782 16.756C42.0262 17.124 42.6022 17.308 43.3062 17.308C43.6102 17.308 43.8982 17.244 44.1702 17.116C44.4582 16.988 44.6902 16.788 44.8662 16.516C45.0582 16.244 45.1542 15.876 45.1542 15.412C45.1542 14.708 44.9142 14.124 44.4342 13.66C43.9542 13.196 43.3542 12.7 42.6342 12.172C42.0902 11.772 41.5782 11.38 41.0982 10.996C40.6342 10.612 40.2502 10.18 39.9462 9.7C39.6582 9.22 39.5142 8.652 39.5142 7.996C39.5142 7.276 39.6982 6.684 40.0662 6.22C40.4342 5.74 40.9142 5.38 41.5062 5.14C42.1142 4.884 42.7622 4.756 43.4502 4.756ZM55.9309 4.756C57.0349 4.756 58.0109 4.98 58.8589 5.428C59.7229 5.86 60.4029 6.556 60.8989 7.516C61.4109 8.476 61.6669 9.74 61.6669 11.308C61.6669 12.876 61.4109 14.14 60.8989 15.1C60.4029 16.06 59.7229 16.756 58.8589 17.188C58.0109 17.62 57.0349 17.836 55.9309 17.836C54.8269 17.836 53.8429 17.62 52.9789 17.188C52.1149 16.756 51.4349 16.06 50.9389 15.1C50.4429 14.14 50.1949 12.876 50.1949 11.308C50.1949 9.74 50.4429 8.476 50.9389 7.516C51.4349 6.556 52.1149 5.86 52.9789 5.428C53.8429 4.98 54.8269 4.756 55.9309 4.756ZM55.9309 5.236C55.1789 5.236 54.5629 5.716 54.0829 6.676C53.6189 7.62 53.3869 9.164 53.3869 11.308C53.3869 13.452 53.6189 14.996 54.0829 15.94C54.5629 16.884 55.1789 17.356 55.9309 17.356C56.6669 17.356 57.2749 16.884 57.7549 15.94C58.2349 14.996 58.4749 13.452 58.4749 11.308C58.4749 9.164 58.2349 7.62 57.7549 6.676C57.2749 5.716 56.6669 5.236 55.9309 5.236Z" fill="white"/>
</svg>
